# xmcd
#
# Track frame offsets: 
#        150
#        13017
#        25370
#        37465
#        48225
#        61405
#        73145
#        84692
#        97082
#        109395
#        121555
#        135875
#        151442
#        166720
#        180237
#        194570
#        208717
#        222855
#        237032
#        250710
#        263057
#        274577
#        287657
#        302287
#
# Disc length: 4197 seconds
#
# Revision: 0
# Processed by: cddbd v1.5.2PL0 Copyright (c) Steve Scherf et al.
# Submitted via: ExactAudioCopy v0.95b4
#
DISCID=4e106318
DTITLE=Various Artist - St Louis 1927 - 1933
DYEAR=1900
DGENRE=Blues
TTITLE0=Free Women Blues - Jelly Roll Anderson
TTITLE1=Good Time Blues - Jelly Roll Anderson
TTITLE2=Salt Tear Blues - Jelly Roll Anderson
TTITLE3=I.C. Blues - Jelly Roll Anderson
TTITLE4=Blue Hawaii - Henry Johnson's Boys
TTITLE5=Hawaiian Harmony Blues - Henry Johnson's Boys
TTITLE6=Down Home Special - Henry Johnson's Boys
TTITLE7=Neck Bones and Beans - Henry Johnson's Boys
TTITLE8=Ash Can Stomp - Henry Johnson's Boys
TTITLE9=Barbecue Blues - Henry Johnson's Boys
TTITLE10=Down In Black Bottom - Bert "Snake Root" Hatton
TTITLE11=Freakish Rider Blues - Bert "Snake Root" Hatton
TTITLE12=I Wish I Had Died In Egyptland Pt 1 - Jesse Johnson
TTITLE13=I Wish I Had Died In Egyptland Pt 2 - Jesse Johnson
TTITLE14=Please Please Blues - "Spider" Carter
TTITLE15=Dry Spell Blues - "Spider" Carter
TTITLE16=Don't Leave Me Blues - "Spider" Carter
TTITLE17=Snow Bound and Blue - Ell-Zee Floyd
TTITLE18=Back To Memphis Tenn-O-See - Red Mike Bailey
TTITLE19=Neck Bone Blues - Red Mike Bailey
TTITLE20=Quarter Splow Blues - Jimmy Strange
TTITLE21=No Limit Blues - Jimmy Strange
TTITLE22=Never Mind Blues - Georgia Boyd
TTITLE23=I'm Sorry Blues - Georgia Boyd
EXTD=
EXTT0=
EXTT1=
EXTT2=
EXTT3=
EXTT4=
EXTT5=
EXTT6=
EXTT7=
EXTT8=
EXTT9=
EXTT10=
EXTT11=
EXTT12=
EXTT13=
EXTT14=
EXTT15=
EXTT16=
EXTT17=
EXTT18=
EXTT19=
EXTT20=
EXTT21=
EXTT22=
EXTT23=
PLAYORDER=
